<?xml version="1.0" encoding="utf-8"?>
<!-- Generator: Adobe Illustrator 16.0.0, SVG Export Plug-In . SVG Version: 6.00 Build 0)  -->
<!DOCTYPE svg PUBLIC "-//W3C//DTD SVG 1.1 Tiny//EN" "http://www.w3.org/Graphics/SVG/1.1/DTD/svg11-tiny.dtd">
<svg version="1.1" baseProfile="tiny" id="Layer_1" xmlns="http://www.w3.org/2000/svg" xmlns:xlink="http://www.w3.org/1999/xlink"
	 x="0px" y="0px" width="1000px" height="1000px" viewBox="0 0 1000 1000" xml:space="preserve">
<g>
	<path fill="#EFEFEF" stroke="#424242" stroke-width="3" stroke-miterlimit="10" d="M342.233,956.604
		c-93.66-40.098-293.731-184.796-293.731-456.188c0-251.82,197.354-425.815,437.287-425.815
		c204.4,0,392.761,163.477,392.761,413.733c0,153.471-133.265,315.865-343.512,315.865c-148.663,0-270.076-139.195-270.076-296.533
		c0-104.171,73.541-228.316,220.19-228.316c95.101,0,196.586,83.064,196.586,194.768c0,95.974-71.391,185.373-161.198,185.373
		c-52.31,0-120.402-32.044-133.897-84.667c6.375,58.068,75.177,117.013,149.604,117.013c151.793,0,225.105-122.671,225.105-210.751
		c0-167.375-126.407-292.912-277.979-292.912c-185.018,0-326.131,132.815-326.131,312.244c0,236.07,184.648,403.677,357.257,403.677
		c297.569,0,452.954-200.792,452.954-408.51c0-337.168-252.737-441.928-332.392-466.572c-7.705-2.262-15.544-4.385-23.521-6.362
		C575.717,14.276,538.377,9.841,500,9.841C230.397,9.841,11.841,228.397,11.841,498c0,268.979,217.546,487.136,486.287,488.146
		C445.169,985.277,393.624,978.605,342.233,956.604z"/>
	<path fill="#EFEFEF" d="M707.501,56.017c-27.411-12.891-56.215-23.31-86.126-30.963c3.677,0.982,8.284,2.286,13.688,3.958
		C660.694,36.534,684.827,45.603,707.501,56.017z"/>
	<path fill="#EA1D4E" stroke="#4C4C4C" stroke-width="3" stroke-miterlimit="10" d="M967.453,495.583
		c0,207.718-155.385,408.51-452.954,408.51c-172.608,0-357.257-167.606-357.257-403.677c0-179.429,141.113-312.244,326.131-312.244
		c151.572,0,277.98,125.538,277.98,292.912c0,88.08-73.313,210.751-225.106,210.751c-74.428,0-143.229-58.943-149.604-117.013
		c13.496,52.623,81.588,84.667,133.897,84.667c89.809,0,161.198-89.399,161.198-185.373c0-111.703-101.485-194.768-196.586-194.768
		c-146.649,0-220.19,124.145-220.19,228.316c0,157.338,121.414,296.533,270.076,296.533c210.247,0,343.512-162.395,343.512-315.865
		c0-250.256-188.359-413.733-392.761-413.733c-239.932,0-437.287,173.995-437.287,425.815c0,271.392,200.071,416.09,293.731,456.188
		c51.39,22.002,102.936,28.674,155.895,29.543c0.624,0.002,1.247,0.012,1.872,0.012c269.604,0,488.158-218.557,488.158-488.158
		c0-195.405-114.812-363.986-280.657-441.983c-22.674-10.414-46.807-19.483-72.438-27.006
		C714.716,53.655,967.453,158.416,967.453,495.583z"/>
	<path fill="#EA1D4E" d="M621.375,25.054c-3.265-0.835-6.543-1.635-9.833-2.404c7.977,1.977,15.815,4.1,23.521,6.362
		C629.659,27.339,625.052,26.036,621.375,25.054z"/>
</g>
</svg>
