<?xml version="1.0" encoding="utf-8"?>
<!-- Generator: Adobe Illustrator 16.0.0, SVG Export Plug-In . SVG Version: 6.00 Build 0)  -->
<!DOCTYPE svg PUBLIC "-//W3C//DTD SVG 1.1 Tiny//EN" "http://www.w3.org/Graphics/SVG/1.1/DTD/svg11-tiny.dtd">
<svg version="1.1" baseProfile="tiny" id="Layer_1" xmlns="http://www.w3.org/2000/svg" xmlns:xlink="http://www.w3.org/1999/xlink"
	 x="0px" y="0px" width="1000px" height="1000px" viewBox="0 0 1000 1000" xml:space="preserve">
<path fill="#EFEFEF" d="M617.445,981.954c-114.885,26.611-233.832,5.649-334.921-59.02
	C180.459,857.649,108.697,754.543,80.458,632.62c-32.76-141.448-3.952-282.72,81.12-397.792
	c72.827-98.508,181.634-170.532,298.523-197.603L581.889,9.017l50.285,217.112c49.061,8.229,96.259,27.565,138.921,57.484
	c71.703,50.286,123.964,127.201,143.377,211.028c26.245,113.303,5.248,227.513-59.114,321.593
	C798.202,899.774,711.489,960.174,617.445,981.954z"/>
<path fill="#E21E56" d="M601.775,914.296c-96.525,22.355-196.611,4.646-281.824-49.865
	c-86.688-55.452-147.712-143.345-171.832-247.481c-28.101-121.326-3.487-242.369,69.306-340.834
	c63.149-85.421,157.312-147.83,258.346-171.23L529.9,92.348l25.073,108.256l-54.131,12.536
	c-74.547,17.267-147.094,65.503-194.06,129.036c-37.6,50.854-76.864,135.461-50.406,249.7
	c17.529,75.682,61.372,139.229,123.455,178.944c59.808,38.26,129.725,50.769,196.871,35.219
	c49.733-11.521,98.188-45.821,129.618-91.765c25.108-36.696,51.078-97.521,32.232-178.893
	c-18.541-80.055-102.149-151.006-197.06-129.026c-71.086,16.464-113.61,76.722-98.916,140.161
	c4.977,21.49,13.949,37.782,24.908,49.184c-7.944-44.303,12.421-85.823,51.251-102.708c30.335-13.185,61.771-13.026,88.543,0.455
	c27.911,14.053,49.093,41.944,56.655,74.6c7.937,34.258-1.231,70.963-25.142,100.705c-21.413,26.626-53.104,45.896-89.25,54.265
	c-49.582,11.487-99.473,0.428-140.476-31.137c-36.797-28.33-63.343-71.05-74.748-120.29
	c-14.201-61.318-2.401-123.433,33.228-174.896c34.083-49.241,86.957-84.254,148.875-98.595
	c74.833-17.333,151.113-2.286,214.796,42.376c57.86,40.577,99.992,102.48,115.593,169.832
	c21.805,94.145,4.481,188.865-48.775,266.714C750.598,846.361,679.061,896.396,601.775,914.296z"/>
</svg>
