<?xml version="1.0" encoding="utf-8"?>
<!-- Generator: Adobe Illustrator 16.0.0, SVG Export Plug-In . SVG Version: 6.00 Build 0)  -->
<!DOCTYPE svg PUBLIC "-//W3C//DTD SVG 1.1//EN" "http://www.w3.org/Graphics/SVG/1.1/DTD/svg11.dtd">
<svg version="1.1" id="Layer_1" xmlns="http://www.w3.org/2000/svg" xmlns:xlink="http://www.w3.org/1999/xlink" x="0px" y="0px"
	 width="1000px" height="1000px" viewBox="0 0 1000 1000" enable-background="new 0 0 1000 1000" xml:space="preserve">
<circle fill="#EFEFEF" cx="496.251" cy="501.747" r="488.158"/>
<g>
	<path fill="#EFEFEF" d="M773.763,97.525c-59.311-40.247-127.944-67.778-201.989-78.688c3.65,0.574,11.078,1.856,21.417,4.195
		C662.069,37.629,722.407,63.339,773.763,97.525z"/>
	<path fill="#EA1D4E" d="M571.771,18.837c-0.809-0.119-1.615-0.24-2.425-0.355c8.059,1.37,16.004,2.89,23.843,4.55
		C582.852,20.693,575.424,19.411,571.771,18.837z"/>
	<path fill="#EA1D4E" d="M984.409,504.164c0-109.124-32.896-213.626-96.075-298.246c-32.054-42.013-70.769-78.669-114.571-108.393
		C722.408,63.338,662.07,37.629,593.19,23.032c85.48,19.347,371.263,110.864,371.263,481.298
		c0,221.048-178.052,412.511-424.954,412.511c-188.608,0-361.257-169.938-361.257-392.677
		c0-136.763,102.111-312.244,319.131-312.244c143.567,0,275.979,107.537,275.979,282.912c0,133.413-98.648,221.751-213.105,221.751
		c-45.578,0-96.762-20.264-127.604-50.013c39.93,13.154,55.598,13.667,84.897,13.667c101.497,0,176.198-83.732,176.198-182.373
		c0-111.703-86.148-192.769-194.586-192.769c-151.983,0-222.19,124.811-222.19,226.316c0,173.339,116.748,300.533,276.076,300.533
		c210.247,0,340.512-160.396,340.512-329.864c0-242.255-183.363-414.734-395.761-414.734c-266.6,0-435.287,201.662-435.287,426.816
		c0,274.365,196.2,470.034,431.842,475.705c1.884,0.021,3.769,0.036,5.655,0.036c22.056,0,43.768-1.473,65.048-4.307
		C776.117,955.049,984.409,767.849,984.409,504.164z"/>
</g>
</svg>
