<?xml version="1.0" encoding="utf-8"?>
<!-- Generator: Adobe Illustrator 16.0.0, SVG Export Plug-In . SVG Version: 6.00 Build 0)  -->
<!DOCTYPE svg PUBLIC "-//W3C//DTD SVG 1.1//EN" "http://www.w3.org/Graphics/SVG/1.1/DTD/svg11.dtd">
<svg version="1.1" id="Layer_1" xmlns="http://www.w3.org/2000/svg" xmlns:xlink="http://www.w3.org/1999/xlink" x="0px" y="0px"
	 width="2995.135px" height="1160.175px" viewBox="0 0 2995.135 1160.175" enable-background="new 0 0 2995.135 1160.175"
	 xml:space="preserve">
<path fill="none" stroke="#EFEFEF" stroke-width="43" stroke-miterlimit="10" d="M455.729,371.727c0,0-5.875,255.532,0,340.44
	c5.129,74.109,22.895,164.635,194.692,224.486"/>
<polyline fill="none" stroke="#EFEFEF" stroke-width="43" stroke-miterlimit="10" points="772.773,936.654 772.773,582.376 
	372.744,582.376 "/>
<circle fill="none" stroke="#EFEFEF" stroke-width="43" stroke-miterlimit="10" cx="767.455" cy="364.278" r="75.875"/>
<polyline fill="none" stroke="#EFEFEF" stroke-width="43" stroke-miterlimit="10" points="1693.047,579.819 1532.34,763.835 
	1532.812,779.515 1774.442,999.21 "/>
<path fill="none" stroke="#EFEFEF" stroke-width="43" stroke-miterlimit="10" d="M2146.785,880.617
	c-38.143,34.486-92.387,56.037-152.566,56.037c-115.456,0-166.493-105.975-166.493-177.139c0-97.832,51.039-177.139,166.493-177.139
	c115.456,0,166.494,79.309,166.494,177.139l-240.221,36.061"/>
<polyline fill="none" stroke="#EFEFEF" stroke-width="43" stroke-miterlimit="10" points="2244.165,582.376 2340.971,582.376 
	2340.971,936.654 "/>
<path fill="none" stroke="#EFEFEF" stroke-width="43" stroke-miterlimit="10" d="M2340.971,740.537
	c26.197-40.039,110.243-132.311,226.676-158.158l34.05,111.709"/>
<polyline fill="none" stroke="#EFEFEF" stroke-width="43" stroke-miterlimit="10" points="984.284,936.654 984.284,582.376 
	887.479,582.376 "/>
<path fill="none" stroke="#EFEFEF" stroke-width="43" stroke-miterlimit="10" d="M1253.862,999.21
	c90.009-167.778,55.212-370.685-45.749-405.322c-182.668-3.649-223.829,177.775-223.829,246.545"/>
<line fill="none" stroke="#EFEFEF" stroke-width="43" stroke-miterlimit="10" x1="1468.976" y1="316.401" x2="1468.976" y2="936.654"/>
</svg>
