<?xml version="1.0" encoding="utf-8"?>
<!-- Generator: Adobe Illustrator 16.0.0, SVG Export Plug-In . SVG Version: 6.00 Build 0)  -->
<!DOCTYPE svg PUBLIC "-//W3C//DTD SVG 1.1 Tiny//EN" "http://www.w3.org/Graphics/SVG/1.1/DTD/svg11-tiny.dtd">
<svg version="1.1" baseProfile="tiny" id="Layer_1" xmlns="http://www.w3.org/2000/svg" xmlns:xlink="http://www.w3.org/1999/xlink"
	 x="0px" y="0px" width="3556.975px" height="1141.097px" viewBox="-439.888 -2.798 3556.975 1141.097" xml:space="preserve">
<path fill="none" stroke="#EFEFEF" stroke-width="60" stroke-linecap="square" stroke-miterlimit="10" d="M932.551,316.576
	c0,0,0,174.981,0,300s17.674,264.927,174.692,264.927"/>
<polyline fill="none" stroke="#EFEFEF" stroke-width="60" stroke-linecap="square" stroke-miterlimit="10" points="
	1249.596,881.502 1249.596,527.225 849.567,527.225 "/>
<circle fill="none" stroke="#EFEFEF" stroke-width="60" stroke-linecap="square" stroke-miterlimit="10" cx="1244.278" cy="316.576" r="92.112"/>
<polyline fill="none" stroke="#EFEFEF" stroke-width="60" stroke-linecap="square" stroke-miterlimit="10" points="2158.87,524.668 
	1998.163,707.684 1998.636,711.364 2240.265,953.059 "/>
<path fill="none" stroke="#EFEFEF" stroke-width="60" stroke-linecap="square" stroke-miterlimit="10" d="M2612.608,825.465
	c-38.145,34.486-92.387,56.037-152.566,56.037c-115.457,0-166.494-105.975-166.494-177.139c0-97.832,51.039-177.139,166.494-177.139
	s166.494,79.309,166.494,177.139l-240.221,36.061"/>
<polyline fill="none" stroke="#EFEFEF" stroke-width="60" stroke-linecap="square" stroke-miterlimit="10" points="
	2739.987,527.225 2806.794,527.225 2806.794,881.502 "/>
<path fill="none" stroke="#EFEFEF" stroke-width="60" stroke-linecap="square" stroke-miterlimit="10" d="M2819.794,687.385
	c26.197-40.039,108.242-134.311,224.676-160.158l34.051,91.709"/>
<polyline fill="none" stroke="#EFEFEF" stroke-width="60" stroke-linecap="square" stroke-miterlimit="10" points="
	1461.107,881.502 1461.107,527.225 1394.301,527.225 "/>
<path fill="none" stroke="#EFEFEF" stroke-width="60" stroke-linecap="square" stroke-miterlimit="10" d="M1750.89,944.059
	c42.096-102.248,83.422-327.415-51.953-414.322c-148.713,16.914-237.83,152.597-237.83,199.545"/>
<line fill="none" stroke="#EFEFEF" stroke-width="60" stroke-linecap="square" stroke-miterlimit="10" x1="1934.798" y1="261.25" x2="1934.798" y2="881.502"/>
<path fill="#EFEFEF" d="M197.987,1125.255c-133.202,30.854-271.113,6.551-388.318-68.43
	c-118.336-75.693-201.541-195.238-234.28-336.598c-37.983-164-4.583-327.794,94.052-461.214
	C-246.122,144.801-119.969,61.295,15.557,29.907L156.761-2.798l58.302,251.727c56.882,9.541,111.605,31.96,161.069,66.649
	c83.135,58.302,143.726,147.48,166.236,244.672c30.428,131.367,6.084,263.787-68.541,372.866
	C407.563,1029.974,307.025,1100.003,197.987,1125.255z"/>
<path fill="#E21E56" d="M179.817,1046.81c-111.913,25.92-227.957,5.389-326.755-57.814
	C-247.446,924.702-318.2,822.797-346.164,702.057c-32.581-140.669-4.043-281.009,80.355-395.173
	c73.218-99.04,182.394-171.398,299.535-198.529L96.484,93.82l29.07,125.516L62.795,233.87c-86.434,20.02-170.546,75.947-225,149.609
	c-43.595,58.962-89.118,157.056-58.442,289.509c20.324,87.749,71.157,161.429,143.137,207.475
	c69.343,44.359,150.407,58.861,228.257,40.832c57.662-13.356,113.844-53.125,150.283-106.394
	c29.111-42.546,59.222-113.07,37.372-207.413c-21.498-92.818-118.435-175.082-228.476-149.598
	C27.506,476.979-21.797,546.843-4.761,620.398c5.77,24.915,16.173,43.806,28.879,57.025C14.907,626.056,38.52,577.916,83.54,558.34
	c35.173-15.287,71.619-15.103,102.66,0.527c32.362,16.295,56.919,48.629,65.688,86.496c9.202,39.718-1.428,82.276-29.149,116.76
	c-24.827,30.869-61.571,53.212-103.478,62.915c-57.489,13.318-115.333,0.496-162.873-36.102
	c-42.664-32.844-73.441-82.376-86.665-139.467c-16.465-71.094-2.783-143.112,38.525-202.78
	c39.518-57.092,100.82-97.688,172.61-114.314c86.764-20.096,175.205-2.649,249.041,49.132
	c67.085,47.047,115.935,118.818,134.022,196.91c25.28,109.152,5.196,218.976-56.552,309.235
	C352.367,968.047,269.425,1026.056,179.817,1046.81z"/>
</svg>
