<?xml version="1.0" encoding="utf-8"?>
<!-- Generator: Adobe Illustrator 16.0.0, SVG Export Plug-In . SVG Version: 6.00 Build 0)  -->
<!DOCTYPE svg PUBLIC "-//W3C//DTD SVG 1.1 Tiny//EN" "http://www.w3.org/Graphics/SVG/1.1/DTD/svg11-tiny.dtd">
<svg version="1.1" baseProfile="tiny" id="Layer_1" xmlns="http://www.w3.org/2000/svg" xmlns:xlink="http://www.w3.org/1999/xlink"
	 x="0px" y="0px" width="1000px" height="1000px" viewBox="0 0 1000 1000" xml:space="preserve">
<path fill="#E0E0E0" d="M524.691,992.854c-121.03,0-235.146-48.548-321.328-136.7c-87.21-89.208-135.239-209.422-135.239-338.497
	c0-149.941,61.857-285.318,174.177-381.193C338.843,54.054,465.44,6.79,589.631,6.79c27.614,0,50,22.386,50,50v120.52
	c0,19.485-11.145,36.367-27.408,44.617c87.249,6.741,167.009,46.23,226.863,112.899c59.337,66.094,93.367,153.985,93.367,241.139
	c0,118.97-47.223,227.885-132.969,306.684C723.271,952.685,623.113,992.854,524.691,992.854z"/>
<path fill="#3A3A3A" d="M3568.069,77.186c0,89.53-72.579,162.109-162.109,162.109h-920.906
	c-89.531,0-162.109-72.579-162.109-162.109v-920.906c0-89.53,72.578-162.109,162.109-162.109h920.906
	c89.53,0,162.109,72.579,162.109,162.109V77.186z"/>
<path fill="none" stroke="#E21E56" stroke-width="40" stroke-linecap="round" stroke-linejoin="round" stroke-miterlimit="10" d="
	M1278.477,341.797c-62.062,0-136.49,47.084-136.49,132.959c0,69.874,53.575,121.12,114.937,121.12
	c45.521,0,98.74-37.879,98.74-101.768c0-39.891-31.457-81.252-78.624-81.252c-36.606,0-66.073,25.716-66.073,61.118
	c0,27.4,17.352,50.584,43.176,50.584c18.66,0,32.701-11.672,32.701-25.055c0-8.205-5.249-21.391-21.192-18.446
	c-12.388,2.288-11.294,20.866-7.17,21.476"/>
<path fill="#E0E0E0" d="M2956.765,175.643c-137.277,0-266.705-55.057-364.44-155.029C2493.451-80.524,2439-216.795,2439-363.098
	c0-169.924,70.108-323.349,197.409-432.013C2745.769-888.461,2889.184-942,3029.881-942c70.496,0,127.85,57.353,127.85,127.849
	c0,52.338-31.609,97.43-76.744,117.187c89.233,12.808,170.325,56.264,232.52,125.537c67.411,75.089,106.072,174.95,106.072,273.98
	c0,134.999-53.595,258.598-150.911,348.03C3182.181,130.06,3068.497,175.643,2956.765,175.643z"/>
<path fill="#E21E56" d="M2956.765,115.643c-120.993,0-235.183-48.643-321.537-136.973C2547.381-111.189,2499-232.562,2499-363.098
	c0-152.079,62.633-289.298,176.363-386.377C2774.027-833.696,2903.244-882,3029.881-882c37.474,0,67.85,30.376,67.85,67.849
	c0,37.472-30.376,67.847-67.85,67.847c-93.439,0-193.035,37.396-266.418,100.037c-58.743,50.142-128.766,139.974-128.766,283.169
	c0,94.867,34.647,182.553,97.562,246.906c60.608,61.994,140.34,96.137,224.505,96.137c62.337,0,129.434-27.457,179.479-73.455
	c39.982-36.738,87.639-101.943,87.639-203.938c0-100.35-79.914-207.792-198.878-207.792c-89.105,0-156.3,59.967-156.3,139.488
	c0,26.936,6.184,48.791,16.08,65.375c2.751-54.896,38.414-98.676,89.265-108.066c39.706-7.344,77.081,1.517,105.221,24.939
	c29.33,24.408,46.841,63.42,46.841,104.355c0,42.943-21.018,84.088-57.657,112.875c-32.806,25.779-75.822,39.975-121.125,39.975
	c-62.155,0-118.46-26.904-158.542-75.756c-35.969-43.84-55.778-101.975-55.778-163.697c0-76.859,31.153-147.501,87.721-198.914
	c54.115-49.185,126.662-76.271,204.275-76.271c93.803,0,180.405,38.921,243.854,109.593c57.654,64.221,90.719,149.47,90.719,233.896
	c0,118.004-46.705,225.918-131.51,303.852C3152.524,75.826,3053.64,115.643,2956.765,115.643z"/>
<text transform="matrix(1 0 0 1 2658.4082 473.5645)" font-family="'HelveticaNeue-Light'" font-size="217.2847">T</text>
<text transform="matrix(1 0 0 1 2784.4307 473.5645)" font-family="'HelveticaNeue-Light'" font-size="217.2847">i</text>
<text transform="matrix(1 0 0 1 2824.6279 473.5645)" font-family="'HelveticaNeue-Light'" font-size="217.2847">n</text>
<text transform="matrix(1 0 0 1 2941.3066 473.5645)" font-family="'HelveticaNeue-Light'" font-size="217.2847">k</text>
<text transform="matrix(1 0 0 1 3049.9492 473.5645)" font-family="'HelveticaNeue-Light'" font-size="217.2847">e</text>
<text transform="matrix(1 0 0 1 3162.7188 473.5645)" font-family="'HelveticaNeue-Light'" font-size="217.2847">r</text>
<path fill="#E21E56" d="M589.631,177.309c-82.989,0-171.446,33.213-236.622,88.849c-52.173,44.534-114.364,124.319-114.364,251.499
	c0,84.257,30.772,162.136,86.651,219.292c53.83,55.061,124.644,85.385,199.396,85.385c55.365,0,114.958-24.387,159.406-65.24
	c35.511-32.629,77.837-90.542,77.837-181.129c0-89.126-70.977-184.552-176.635-184.552c-79.14,0-138.819,53.26-138.819,123.887
	c0,23.923,5.492,43.334,14.282,58.063c2.443-48.757,34.118-87.64,79.281-95.979c35.265-6.523,68.46,1.347,93.452,22.149
	c26.05,21.679,41.603,56.327,41.603,92.685c0,38.141-18.667,74.683-51.209,100.251c-29.137,22.896-67.342,35.503-107.578,35.503
	c-55.204,0-105.211-23.895-140.811-67.283c-31.946-38.937-49.54-90.569-49.54-145.389c0-68.263,27.669-131.004,77.91-176.667
	c48.063-43.684,112.496-67.74,181.429-67.74c83.312,0,160.229,34.568,216.581,97.336c51.206,57.038,80.572,132.752,80.572,207.736
	c0,104.807-41.481,200.651-116.801,269.868c-67.095,61.658-154.92,97.021-240.961,97.021c-107.46,0-208.879-43.203-285.575-121.653
	c-78.022-79.81-120.992-187.608-120.992-303.544c0-135.07,55.628-256.942,156.639-343.164
	C362.392,99.691,477.157,56.79,589.631,56.79V177.309z"/>
</svg>
