<?xml version="1.0" encoding="utf-8"?>
<!-- Generator: Adobe Illustrator 16.0.0, SVG Export Plug-In . SVG Version: 6.00 Build 0)  -->
<!DOCTYPE svg PUBLIC "-//W3C//DTD SVG 1.1//EN" "http://www.w3.org/Graphics/SVG/1.1/DTD/svg11.dtd">
<svg version="1.1" id="Layer_1" xmlns="http://www.w3.org/2000/svg" xmlns:xlink="http://www.w3.org/1999/xlink" x="0px" y="0px"
	 width="3770.987px" height="1141.097px" viewBox="0 0 3770.987 1141.097" enable-background="new 0 0 3770.987 1141.097"
	 xml:space="preserve">
<path fill="none" stroke="#999999" stroke-width="80" stroke-miterlimit="10" d="M1268.074,268.163c0,0,0,174.806,0,323.875
	c0,209.226,51.152,315.895,208.3,315.895"/>
<line fill="none" stroke="#999999" stroke-width="80" stroke-miterlimit="10" x1="1476.374" y1="530.615" x2="1146.567" y2="530.615"/>
<circle fill="#999999" cx="1641.694" cy="286.883" r="115.624"/>
<polyline fill="none" stroke="#999999" stroke-width="80" stroke-miterlimit="10" points="2700.763,541.128 2709.62,530.846 
	2709.792,530.846 2555.285,711.954 2555.848,716.342 2749.385,909.933 2749.565,909.933 2742.585,903.132 "/>
<path fill="none" stroke="#999999" stroke-width="80" stroke-miterlimit="10" d="M3229.515,853.221
	c-41.517,37.535-100.554,60.991-166.054,60.991c-125.663,0-181.212-115.344-181.212-192.799
	c0-106.481,55.551-192.799,181.212-192.799c125.663,0,181.214,86.321,181.214,192.799l-343.824,49.544"/>
<polyline fill="none" stroke="#999999" stroke-width="80" stroke-miterlimit="10" points="3323.425,530.615 3436.921,530.615 
	3436.921,953.048 "/>
<path fill="none" stroke="#999999" stroke-width="80" stroke-miterlimit="10" d="M3436.921,721.586
	c35.017-86.743,111.087-199.43,255.331-202.248"/>
<path fill="none" stroke="#999999" stroke-width="80" stroke-miterlimit="10" d="M2267.214,953.05c0-0.537,0.113-3.024,0.231-4.583
	c0.184-2.457,0.62-5.112,2.488-13.301c31.319-137.431,27.685-362.405-102.345-405.555c-170.156,0-257.351,185.952-257.351,241.933"
	/>
<line fill="none" stroke="#999999" stroke-width="80" stroke-miterlimit="10" x1="2457.171" y1="268.163" x2="2457.171" y2="953.048"/>
<path fill="#EFEFEF" d="M647.487,1119.395c-131.779,30.523-268.216,6.48-384.169-67.699
	C146.246,976.811,63.93,858.543,31.541,718.693c-37.577-162.248-4.534-324.292,93.047-456.286
	c83.535-112.992,208.34-195.605,342.419-226.658L606.702,3.393l57.679,249.038c56.274,9.438,110.413,31.619,159.348,65.937
	c82.247,57.679,142.191,145.904,164.46,242.058c30.103,129.963,6.019,260.968-67.809,368.883
	C854.824,1025.131,755.361,1094.413,647.487,1119.395z"/>
<path fill="#E21E56" d="M629.512,1041.788c-110.718,25.643-225.522,5.331-323.264-57.197
	c-99.434-63.605-169.433-164.423-197.098-283.874c-32.233-139.165-4-278.006,79.497-390.95
	c72.436-97.982,180.445-169.567,296.335-196.408l62.087-14.38l28.76,124.175l-62.089,14.379
	c-85.511,19.806-168.724,75.135-222.596,148.01c-43.129,58.333-88.166,155.378-57.817,286.416
	c20.106,86.812,70.396,159.705,141.608,205.259c68.602,43.885,148.8,58.232,225.818,40.396
	C657.798,904.4,713.38,865.055,749.43,812.357c28.8-42.093,58.589-111.862,36.973-205.198
	c-21.269-91.826-117.17-173.211-226.036-148c-81.54,18.885-130.315,88.003-113.462,160.772c5.708,24.647,16,43.339,28.571,56.416
	c-9.112-50.818,14.248-98.444,58.787-117.812c34.797-15.124,70.854-14.941,101.563,0.522c32.016,16.121,56.311,48.109,64.986,85.572
	c9.103,39.294-1.413,81.396-28.838,115.512c-24.562,30.54-60.913,52.645-102.373,62.244
	c-56.875,13.176-114.101,0.491-161.133-35.718c-42.208-32.493-72.657-81.495-85.739-137.977
	c-16.289-70.334-2.753-141.582,38.113-200.613c39.096-56.482,99.743-96.645,170.766-113.093
	c85.837-19.881,173.333-2.621,246.381,48.607c66.368,46.544,114.696,117.549,132.589,194.807
	c25.01,107.986,5.141,216.636-55.947,305.931C800.218,963.866,718.162,1021.255,629.512,1041.788z"/>
<polyline fill="none" stroke="#999999" stroke-width="80" stroke-miterlimit="10" points="1910.238,953.048 1910.238,530.615 
	1796.741,530.615 "/>
<polyline fill="none" stroke="#999999" stroke-width="80" stroke-miterlimit="10" points="1658.035,953.048 1658.035,530.615 
	1544.538,530.615 "/>
</svg>
