<?xml version="1.0" encoding="utf-8"?>
<!-- Generator: Adobe Illustrator 16.0.0, SVG Export Plug-In . SVG Version: 6.00 Build 0)  -->
<!DOCTYPE svg PUBLIC "-//W3C//DTD SVG 1.1 Tiny//EN" "http://www.w3.org/Graphics/SVG/1.1/DTD/svg11-tiny.dtd">
<svg version="1.1" baseProfile="tiny" id="Layer_1" xmlns="http://www.w3.org/2000/svg" xmlns:xlink="http://www.w3.org/1999/xlink"
	 x="0px" y="0px" width="1000px" height="1000px" viewBox="0 0 1000 1000" xml:space="preserve">
<path fill="#E0E0E0" d="M1000,500c0,276.143-223.857,500-500,500S0,776.143,0,500S519.528,0.282,529.186,0.837
	C791.744,15.949,1000,233.654,1000,500z"/>
<path fill="none" stroke="#E21E56" stroke-width="40" stroke-linecap="round" stroke-linejoin="round" stroke-miterlimit="10" d="
	M1278.477,341.797c-62.062,0-136.49,47.084-136.49,132.959c0,69.874,53.575,121.12,114.937,121.12
	c45.521,0,98.74-37.879,98.74-101.768c0-39.891-31.457-81.252-78.624-81.252c-36.606,0-66.073,25.716-66.073,61.118
	c0,27.4,17.352,50.584,43.176,50.584c18.66,0,32.701-11.672,32.701-25.055c0-8.205-5.249-21.391-21.192-18.446
	c-12.388,2.288-11.294,20.866-7.17,21.476"/>
<path fill="#E21E56" d="M457.765,997.643c-120.993,0-235.182-48.643-321.537-136.973C48.381,770.811,0,649.438,0,518.902
	c0-152.079,62.633-289.298,176.363-386.377C275.028,48.304,404.244,0,530.881,0c37.474,0,67.85,30.376,67.85,67.849
	c0,37.472-30.376,67.847-67.85,67.847c-93.439,0-193.036,37.396-266.418,100.037c-58.743,50.142-128.766,139.974-128.766,283.169
	c0,94.867,34.648,182.553,97.563,246.906c60.608,61.994,140.34,96.137,224.505,96.137c62.337,0,129.434-27.457,179.479-73.455
	c39.982-36.738,87.639-101.943,87.639-203.938c0-100.35-79.914-207.792-198.878-207.792c-89.105,0-156.3,59.967-156.3,139.488
	c0,26.936,6.184,48.791,16.08,65.375c2.751-54.896,38.414-98.676,89.265-108.066c39.706-7.344,77.081,1.517,105.221,24.939
	c29.33,24.408,46.841,63.42,46.841,104.355c0,42.943-21.018,84.088-57.657,112.875c-32.806,25.779-75.822,39.975-121.125,39.975
	c-62.155,0-118.46-26.904-158.542-75.756c-35.969-43.84-55.778-101.975-55.778-163.697c0-76.859,31.153-147.501,87.721-198.914
	c54.115-49.185,126.662-76.271,204.275-76.271c93.803,0,180.405,38.921,243.854,109.593c57.654,64.221,90.719,149.47,90.719,233.896
	c0,118.004-46.705,225.918-131.51,303.852C653.524,957.826,554.64,997.643,457.765,997.643z"/>
</svg>
