<?xml version="1.0" encoding="utf-8"?>
<!-- Generator: Adobe Illustrator 16.0.0, SVG Export Plug-In . SVG Version: 6.00 Build 0)  -->
<!DOCTYPE svg PUBLIC "-//W3C//DTD SVG 1.1//EN" "http://www.w3.org/Graphics/SVG/1.1/DTD/svg11.dtd">
<svg version="1.1" id="Layer_1" xmlns="http://www.w3.org/2000/svg" xmlns:xlink="http://www.w3.org/1999/xlink" x="0px" y="0px"
	 width="29.647px" height="34px" viewBox="481.563 484.111 29.647 34" enable-background="new 481.563 484.111 29.647 34"
	 xml:space="preserve">
<path fill="#EFEFEF" d="M500.569,517.722c-3.969,0.92-8.078,0.195-11.57-2.039c-3.526-2.255-6.005-5.816-6.98-10.028
	c-1.132-4.887-0.137-9.768,2.802-13.743c2.516-3.403,6.275-5.891,10.313-6.827l4.207-0.974l1.737,7.5
	c1.695,0.285,3.325,0.953,4.799,1.986c2.478,1.737,4.283,4.395,4.953,7.29c0.907,3.915,0.182,7.86-2.042,11.11
	C506.813,514.883,503.818,516.97,500.569,517.722z"/>
<path fill="#E21E56" d="M500.028,515.385c-3.334,0.772-6.792,0.16-9.736-1.723c-2.995-1.916-5.103-4.952-5.936-8.55
	c-0.971-4.191-0.121-8.373,2.394-11.774c2.182-2.951,5.435-5.107,8.925-5.916l1.87-0.433l0.866,3.74l-1.87,0.433
	c-2.575,0.597-5.082,2.263-6.704,4.458c-1.299,1.757-2.655,4.68-1.741,8.626c0.605,2.614,2.12,4.81,4.265,6.182
	c2.066,1.322,4.482,1.754,6.801,1.217c1.718-0.397,3.392-1.583,4.478-3.17c0.867-1.268,1.765-3.369,1.113-6.18
	c-0.641-2.766-3.528-5.217-6.808-4.458c-2.456,0.569-3.925,2.651-3.417,4.843c0.172,0.742,0.482,1.305,0.86,1.698
	c-0.274-1.53,0.429-2.965,1.771-3.548c1.048-0.456,2.134-0.45,3.059,0.016c0.964,0.485,1.696,1.449,1.957,2.577
	c0.274,1.184-0.042,2.452-0.868,3.479c-0.739,0.92-1.834,1.585-3.083,1.874c-1.713,0.397-3.437,0.015-4.853-1.075
	c-1.271-0.979-2.188-2.455-2.583-4.155c-0.49-2.119-0.083-4.265,1.148-6.042c1.178-1.701,3.004-2.911,5.143-3.406
	c2.585-0.599,5.221-0.079,7.421,1.464c1.998,1.401,3.454,3.54,3.993,5.867c0.753,3.252,0.154,6.524-1.686,9.214
	C505.169,513.038,502.698,514.767,500.028,515.385z"/>
</svg>
