<?xml version="1.0" encoding="utf-8"?>
<!-- Generator: Adobe Illustrator 16.0.0, SVG Export Plug-In . SVG Version: 6.00 Build 0)  -->
<!DOCTYPE svg PUBLIC "-//W3C//DTD SVG 1.1//EN" "http://www.w3.org/Graphics/SVG/1.1/DTD/svg11.dtd">
<svg version="1.1" id="Layer_1" xmlns="http://www.w3.org/2000/svg" xmlns:xlink="http://www.w3.org/1999/xlink" x="0px" y="0px"
	 width="71.17px" height="30px" viewBox="14.912 0 71.17 30" enable-background="new 14.912 0 71.17 30" xml:space="preserve">
<path fill="#B6B7B7" d="M25.676,15.919v-2.126h-4.473V7.881h-2.125v5.912h-2.166v2.126h2.166v0.569c0,3.154,0.432,5.328,1.357,6.839
	c0.541,0.878,1.26,1.544,2.143,1.979c0.873,0.43,1.887,0.641,3.098,0.641V23.82c-0.879,0-1.584-0.139-2.156-0.422
	c-0.525-0.26-0.941-0.646-1.271-1.187c-0.703-1.146-1.043-3.019-1.043-5.726v-0.569L25.676,15.919L25.676,15.919z"/>
<circle fill="#B6B7B7" cx="30.069" cy="8.379" r="3.073"/>
<polygon fill="#B6B7B7" points="62.124,26 59.065,26 53.354,20.287 53.233,19.343 57.413,14.445 57.409,14.442 57.961,13.799 
	60.756,13.799 55.747,19.673 60.073,24 "/>
<path fill="#B6B7B7" d="M67.852,26.113c-0.963,0-1.855-0.213-2.656-0.633c-0.711-0.375-1.332-0.902-1.846-1.572
	c-0.861-1.121-1.377-2.609-1.377-3.981c0-1.733,0.486-3.224,1.408-4.31c1.041-1.228,2.586-1.876,4.471-1.876s3.43,0.648,4.471,1.876
	c0.922,1.086,1.408,2.576,1.408,4.31v0.921l-9.008,1.299c0.092,0.158,0.195,0.315,0.312,0.469c0.7,0.912,1.646,1.374,2.815,1.374
	c1.403,0,2.754-0.49,3.698-1.347l1.429,1.576c-0.66,0.598-1.438,1.064-2.31,1.393C69.78,25.943,68.831,26.113,67.852,26.113z
	 M67.852,15.866c-1.258,0-2.215,0.378-2.85,1.125c-0.592,0.696-0.902,1.712-0.902,2.935c0,0.053,0,0.105,0.004,0.16l7.438-1.07
	c-0.119-0.818-0.401-1.51-0.84-2.022C70.069,16.245,69.11,15.866,67.852,15.866z"/>
<path fill="#B6B7B7" d="M84.542,13.494c-1.99,0.039-3.735,0.76-5.19,2.145c-0.181,0.17-0.351,0.346-0.511,0.524v-2.369h-4.08v2.126
	h1.953v10.163h2.127v-5.938c0.371-0.875,1-2.041,1.976-2.965c1.06-1.007,2.326-1.531,3.771-1.56L84.542,13.494z"/>
<rect x="50.676" y="7.882" fill="#B6B7B7" width="2.127" height="18.201"/>
<path fill="#B6B7B7" d="M48.061,19.104c-0.473-2.812-1.746-4.641-3.682-5.281l-0.162-0.055h-0.172c-1.236,0-2.416,0.314-3.504,0.936
	c-0.832,0.475-1.597,1.119-2.271,1.917v-2.825h-4.08v2.126h1.953v10.163h2.127V21.26c0-0.425,0.449-1.814,1.488-3.104
	c0.807-1,2.164-2.188,4.104-2.259c0.771,0.32,1.705,1.207,2.101,3.561c0.297,1.759,0.209,3.971-0.234,5.916
	c-0.053,0.229-0.08,0.363-0.09,0.511c-0.004,0.037-0.01,0.142-0.01,0.201h2.125c0,0.005,0,0.013,0,0.021
	c0-0.012,0.002-0.041,0.004-0.061c0.002-0.015,0.012-0.062,0.043-0.201C48.303,23.641,48.401,21.121,48.061,19.104z"/>
<polygon fill="#B6B7B7" points="31.567,26.083 29.44,26.083 29.44,15.919 27.487,15.919 27.487,13.793 31.567,13.793 "/>
</svg>
