<?xml version="1.0" encoding="utf-8"?>
<!-- Generator: Adobe Illustrator 16.0.0, SVG Export Plug-In . SVG Version: 6.00 Build 0)  -->
<!DOCTYPE svg PUBLIC "-//W3C//DTD SVG 1.1//EN" "http://www.w3.org/Graphics/SVG/1.1/DTD/svg11.dtd">
<svg version="1.1" id="Layer_1" xmlns="http://www.w3.org/2000/svg" xmlns:xlink="http://www.w3.org/1999/xlink" x="0px" y="0px"
	 width="97.704px" height="97.704px" viewBox="0 -67.704 97.704 97.704" enable-background="new 0 -67.704 97.704 97.704"
	 xml:space="preserve">
<path opacity="0.9" fill="#E8EDEF" d="M73.23-39.083c-1.144-4.943-4.221-9.474-8.45-12.438c-2.515-1.763-5.294-2.904-8.187-3.387
	l-2.964-12.795l-7.175,1.663c-6.891,1.596-13.303,5.838-17.596,11.646c-5.015,6.78-6.71,15.106-4.781,23.441
	c1.666,7.186,5.895,13.261,11.91,17.109c5.959,3.812,12.967,5.048,19.737,3.478c5.539-1.282,10.651-4.841,14.021-9.765
	C73.541-25.677,74.775-32.408,73.23-39.083z"/>
<path opacity="0.4" fill="#606C78" d="M17.773,17.245V14.65h-5.461V7.432H9.718v7.218H7.073v2.595h2.645v0.694
	c0,3.85,0.527,6.506,1.658,8.348c0.66,1.072,1.539,1.887,2.615,2.418c1.065,0.526,2.304,0.78,3.783,0.78v-2.595
	c-1.074,0-1.935-0.168-2.634-0.512c-0.641-0.32-1.149-0.79-1.552-1.449c-0.858-1.398-1.273-3.685-1.273-6.991v-0.695h5.459V17.245z"
	/>
<circle opacity="0.4" fill="#606C78" cx="23.134" cy="8.04" r="3.752"/>
<polygon opacity="0.4" fill="#606C78" points="62.268,29.552 58.533,29.552 51.562,22.578 51.415,21.425 56.517,15.445 
	56.511,15.442 57.186,14.657 60.599,14.657 54.483,21.828 59.763,27.11 "/>
<path opacity="0.4" fill="#606C78" d="M69.26,29.69c-1.177,0-2.267-0.26-3.242-0.773c-0.867-0.457-1.627-1.101-2.253-1.917
	c-1.054-1.371-1.682-3.187-1.682-4.861c0-2.116,0.593-3.936,1.718-5.262c1.273-1.499,3.157-2.29,5.459-2.29
	c2.301,0,4.188,0.791,5.457,2.29c1.125,1.326,1.72,3.146,1.72,5.262v1.123L65.44,24.849c0.112,0.192,0.24,0.385,0.382,0.57
	c0.855,1.113,2.01,1.677,3.438,1.677c1.715,0,3.362-0.598,4.516-1.643l1.744,1.925c-0.807,0.727-1.756,1.299-2.819,1.698
	C71.614,29.484,70.456,29.69,69.26,29.69z M69.26,17.181c-1.535,0-2.703,0.461-3.479,1.373c-0.723,0.851-1.103,2.091-1.103,3.584
	c0,0.064,0,0.128,0.006,0.195l9.079-1.309c-0.146-0.999-0.49-1.842-1.025-2.469C71.967,17.642,70.795,17.181,69.26,17.181z"/>
<path opacity="0.4" fill="#606C78" d="M89.634,14.285c-2.43,0.047-4.562,0.928-6.338,2.618c-0.219,0.205-0.425,0.422-0.622,0.643
	V14.65h-4.98v2.598h2.385v12.406h2.596v-7.252c0.453-1.068,1.221-2.49,2.41-3.619c1.294-1.228,2.84-1.868,4.603-1.904L89.634,14.285
	z"/>
<rect x="48.292" y="7.434" opacity="0.4" fill="#606C78" width="2.596" height="22.22"/>
<path opacity="0.4" fill="#606C78" d="M45.099,21.133c-0.577-3.434-2.131-5.666-4.495-6.447l-0.196-0.068h-0.211
	c-1.509,0-2.948,0.384-4.277,1.143c-1.017,0.58-1.948,1.367-2.773,2.341v-3.45h-4.981v2.598h2.384v12.406h2.597v-5.891
	c0-0.517,0.548-2.214,1.817-3.79c0.985-1.221,2.642-2.67,5.012-2.756c0.941,0.391,2.081,1.475,2.563,4.345
	c0.363,2.147,0.254,4.848-0.286,7.223c-0.065,0.279-0.099,0.444-0.109,0.625c-0.005,0.046-0.013,0.171-0.013,0.245h2.594
	c0,0.007,0,0.016,0,0.025c0-0.015,0.003-0.05,0.007-0.073c0.002-0.018,0.013-0.076,0.053-0.246
	C45.395,26.669,45.515,23.597,45.099,21.133z"/>
<polygon opacity="0.4" fill="#606C78" points="24.964,29.654 22.367,29.654 22.367,17.245 19.982,17.245 19.982,14.65 24.964,14.65 
	"/>
<path fill="#E21E56" d="M54.8-14.351c-5.688,1.316-11.585,0.273-16.607-2.941c-5.108-3.267-8.704-8.447-10.127-14.585
	c-1.654-7.15-0.204-14.283,4.085-20.084c3.724-5.035,9.271-8.711,15.225-10.091l3.191-0.738l1.477,6.379l-3.191,0.74
	c-4.391,1.016-8.666,3.861-11.434,7.603c-2.216,2.996-4.531,7.982-2.971,14.715c1.034,4.459,3.617,8.208,7.275,10.546
	c3.523,2.254,7.643,2.993,11.601,2.073c2.93-0.678,5.788-2.698,7.639-5.407c1.48-2.162,3.01-5.747,1.899-10.543
	c-1.092-4.716-6.02-8.898-11.615-7.603c-4.188,0.97-6.695,4.52-5.826,8.258c0.291,1.267,0.819,2.226,1.465,2.9
	c-0.469-2.613,0.732-5.058,3.021-6.055c1.786-0.776,3.641-0.767,5.219,0.028c1.646,0.827,2.893,2.47,3.338,4.396
	c0.469,2.018-0.071,4.182-1.484,5.934c-1.257,1.568-3.126,2.703-5.256,3.198c-2.923,0.678-5.864,0.024-8.28-1.835
	c-2.168-1.669-3.73-4.188-4.403-7.089c-0.838-3.614-0.14-7.272,1.96-10.307c2.009-2.902,5.124-4.965,8.771-5.81
	c4.41-1.021,8.904-0.136,12.657,2.498c3.41,2.39,5.895,6.04,6.812,10.008c1.288,5.549,0.265,11.13-2.873,15.717
	C63.572-18.355,59.357-15.408,54.8-14.351z"/>
</svg>
