<?xml version="1.0" encoding="utf-8"?>
<!-- Generator: Adobe Illustrator 16.0.0, SVG Export Plug-In . SVG Version: 6.00 Build 0)  -->
<!DOCTYPE svg PUBLIC "-//W3C//DTD SVG 1.1//EN" "http://www.w3.org/Graphics/SVG/1.1/DTD/svg11.dtd">
<svg version="1.1" id="Layer_1" xmlns="http://www.w3.org/2000/svg" xmlns:xlink="http://www.w3.org/1999/xlink" x="0px" y="0px"
	 width="97.704px" height="30px" viewBox="1805.878 552.846 97.704 30" enable-background="new 1805.878 552.846 97.704 30"
	 xml:space="preserve">
<path fill="#A8AAAC" d="M1844.676,567.919v-2.126h-4.472v-5.912h-2.126v5.912h-2.166v2.126h2.166v0.569
	c0,3.155,0.432,5.328,1.358,6.839c0.54,0.878,1.26,1.544,2.143,1.979c0.873,0.43,1.886,0.64,3.097,0.64v-2.126
	c-0.878,0-1.583-0.138-2.156-0.421c-0.525-0.259-0.941-0.646-1.271-1.186c-0.703-1.145-1.044-3.018-1.044-5.726v-0.569H1844.676z"/>
<circle fill="#A8AAAC" cx="1849.069" cy="560.379" r="3.073"/>
<polygon fill="#A8AAAC" points="1881.124,578 1878.065,578 1872.354,572.287 1872.233,571.343 1876.412,566.445 1876.408,566.442 
	1876.961,565.799 1879.757,565.799 1874.747,571.673 1879.072,576 "/>
<path fill="#A8AAAC" d="M1886.852,578.113c-0.963,0-1.856-0.213-2.656-0.633c-0.711-0.374-1.333-0.902-1.847-1.572
	c-0.861-1.121-1.376-2.609-1.376-3.981c0-1.734,0.487-3.224,1.408-4.31c1.041-1.227,2.587-1.876,4.471-1.876s3.43,0.649,4.471,1.876
	c0.921,1.086,1.407,2.576,1.407,4.31v0.921l-9.007,1.299c0.092,0.158,0.196,0.315,0.312,0.467c0.701,0.912,1.648,1.374,2.817,1.374
	c1.404,0,2.753-0.49,3.7-1.346l1.426,1.577c-0.66,0.596-1.437,1.064-2.308,1.391
	C1888.779,577.944,1887.831,578.113,1886.852,578.113z M1886.852,567.866c-1.258,0-2.216,0.378-2.85,1.125
	c-0.591,0.697-0.903,1.712-0.903,2.935c0,0.052,0.001,0.105,0.004,0.16l7.438-1.071c-0.118-0.819-0.403-1.509-0.84-2.023
	C1889.068,568.245,1888.109,567.866,1886.852,567.866z"/>
<path fill="#A8AAAC" d="M1903.541,565.494c-1.99,0.039-3.736,0.76-5.192,2.144c-0.179,0.17-0.349,0.346-0.509,0.525v-2.369h-4.079
	v2.126h1.953v10.163h2.126v-5.939c0.372-0.875,1-2.04,1.974-2.965c1.059-1.006,2.327-1.531,3.77-1.559L1903.541,565.494z"/>
<rect x="1869.677" y="559.882" fill="#A8AAAC" width="2.126" height="18.201"/>
<path fill="#EFEFEF" d="M1822.649,582.502c-3.502,0.812-7.128,0.173-10.209-1.799c-3.111-1.99-5.299-5.133-6.16-8.85
	c-0.999-4.311-0.121-8.618,2.473-12.125c2.22-3.003,5.537-5.198,9.1-6.023l3.712-0.86l1.533,6.618
	c1.496,0.25,2.934,0.84,4.235,1.752c2.186,1.533,3.778,3.877,4.37,6.433c0.8,3.454,0.16,6.935-1.802,9.803
	C1828.159,579.998,1825.515,581.839,1822.649,582.502z"/>
<path fill="#E21E56" d="M1822.171,580.441c-2.942,0.681-5.993,0.142-8.59-1.521c-2.643-1.69-4.503-4.369-5.238-7.544
	c-0.856-3.698-0.106-7.388,2.113-10.389c1.925-2.604,4.795-4.506,7.875-5.219l1.649-0.382l0.765,3.3l-1.65,0.382
	c-2.272,0.526-4.483,1.997-5.915,3.933c-1.146,1.55-2.343,4.129-1.537,7.611c0.535,2.307,1.871,4.245,3.763,5.455
	c1.823,1.166,3.954,1.548,6.001,1.073c1.516-0.351,2.993-1.396,3.951-2.797c0.765-1.118,1.557-2.973,0.982-5.453
	c-0.565-2.44-3.114-4.603-6.007-3.933c-2.167,0.502-3.463,2.338-3.015,4.272c0.152,0.655,0.425,1.151,0.759,1.499
	c-0.242-1.351,0.379-2.616,1.562-3.131c0.924-0.402,1.883-0.397,2.699,0.014c0.851,0.428,1.497,1.278,1.727,2.274
	c0.242,1.044-0.038,2.163-0.767,3.069c-0.652,0.812-1.619,1.399-2.72,1.654c-1.512,0.351-3.032,0.013-4.282-0.949
	c-1.122-0.863-1.931-2.166-2.278-3.667c-0.433-1.869-0.073-3.762,1.013-5.331c1.039-1.501,2.651-2.568,4.538-3.005
	c2.281-0.528,4.606-0.07,6.547,1.292c1.764,1.237,3.048,3.124,3.523,5.177c0.665,2.87,0.137,5.757-1.487,8.13
	C1826.708,578.37,1824.527,579.895,1822.171,580.441z"/>
<path fill="#A8AAAC" d="M1867.061,571.103c-0.473-2.813-1.746-4.64-3.681-5.282l-0.163-0.054h-0.172
	c-1.236,0-2.415,0.314-3.503,0.935c-0.832,0.475-1.596,1.119-2.273,1.917v-2.825h-4.079v2.126h1.953v10.163h2.126v-4.823
	c0-0.425,0.45-1.815,1.489-3.106c0.806-1,2.164-2.187,4.106-2.257c0.771,0.32,1.705,1.207,2.1,3.559
	c0.296,1.759,0.208,3.971-0.236,5.916c-0.052,0.229-0.079,0.363-0.09,0.511c-0.003,0.037-0.009,0.141-0.009,0.201h2.126
	c0,0.005,0,0.012,0,0.022c0-0.012,0.001-0.042,0.003-0.061c0.002-0.015,0.011-0.062,0.043-0.201
	C1867.303,575.64,1867.4,573.121,1867.061,571.103z"/>
<polygon fill="#A8AAAC" points="1850.566,578.083 1848.44,578.083 1848.44,567.919 1846.487,567.919 1846.487,565.793 
	1850.566,565.793 "/>
</svg>
